<?xml version="1.0" standalone="no"?><!DOCTYPE svg PUBLIC "-//W3C//DTD SVG 1.1//EN" "http://www.w3.org/Graphics/SVG/1.1/DTD/svg11.dtd" ><svg xmlns="http://www.w3.org/2000/svg"><metadata>Generated by Glyphter</metadata><defs><font id="Glyphter" horiz-adv-x="0"><font-face units-per-em="1024" ascent="1024" descent="0" font-family="Glyphter" font-weight="normal" /><missing-glyph horiz-adv-x="0" /><glyph unicode="&#x0041;" d="M1,512.5C1,118.949,427.031,-127.02,767.856,69.756C926.033,161.079,1023.474,329.853,1023.474,512.5C1023.474,906.051,597.443,1152.02,256.619,955.244C98.441,863.921,1,695.147,1,512.5M210.175,719.548C210.175,719.548,330.716,719.548,330.716,719.548C330.716,719.548,512.237,535.19,512.237,535.19C512.237,535.19,695.176,719.548,695.176,719.548C695.176,719.548,811.463,719.548,811.463,719.548C811.463,719.548,811.463,304.034,811.463,304.034C811.463,304.034,689.504,304.034,689.504,304.034C689.504,304.034,689.504,544.763,689.504,544.763C689.504,544.763,541.074,396.213,541.074,396.213C541.074,396.213,483.401,396.213,483.401,396.213C483.401,396.213,334.97,544.763,334.97,544.763C334.97,544.763,334.97,304.034,334.97,304.034C334.97,304.034,210.175,304.034,210.175,304.034C210.175,304.034,210.175,719.548,210.175,719.548" class="icon-mega-icon"/><glyph unicode="&#x0042;" d="M1024,0.205C685.697,0.205,347.353,0.246,9.05,0C1.515,0,0,1.515,0,9.05C0.205,347.353,0.205,685.656,0.205,1024C337.074,1024,673.903,1024,1010.773,1024C1023.959,1024,1023.959,1024,1023.959,1010.773C1023.959,673.903,1023.959,337.033,1024,0.205C1024,0.205,1024,0.205,1024,0.205M736.191,627.668C717.599,646.711,698.638,663.46,675.336,674.517C617.144,702.119,556.986,701.955,496.704,683.895C376.511,647.858,259.389,507.884,306.483,327.246C331.423,231.542,423.728,124.739,560.303,120.071C619.109,118.064,673.739,129.49,720.465,167.657C727.058,173.021,733.488,178.632,741.351,185.307C741.351,166.633,741.76,149.679,741.187,132.766C740.941,125.149,742.907,122.814,750.77,122.896C798.56,123.265,846.31,123.265,894.101,122.896C901.431,122.855,903.274,124.78,903.274,132.07C903.069,386.749,903.069,641.469,903.274,896.148C903.274,903.397,901.759,904.707,894.633,903.192C844.959,892.627,795.243,882.348,745.405,872.519C737.46,870.963,735.986,867.523,735.986,860.193C736.232,786.07,736.15,711.906,736.15,637.743C736.191,634.384,736.191,631.026,736.191,627.668C736.191,627.668,736.191,627.668,736.191,627.668M608.38,270.159C524.142,271.019,462.428,330.891,463.534,410.747C464.598,487.613,528.115,549.737,604.776,548.918C683.445,548.058,743.398,486.016,742.743,406.16C742.088,329.498,682.667,269.381,608.38,270.159C608.38,270.159,608.38,270.159,608.38,270.159" class="icon-dailymotion"/><glyph unicode="&#x0043;" d="M787.427,480.463C786.28,610.062,891.631,672.281,896.382,675.312C837.112,763.418,744.869,775.46,711.978,776.894C633.538,784.963,558.826,729.994,519.054,729.994C479.281,729.994,417.799,775.747,352.754,774.477C267.106,773.166,188.298,723.932,144.183,646.107C55.299,489.474,121.491,257.31,208.041,130.168C250.394,68.031,300.857,-2.011,367.172,0.569C431.071,3.15,455.237,42.513,532.325,42.513C609.413,42.513,631.163,0.569,698.707,1.798C767.397,3.15,810.979,65.287,853.005,127.629C901.543,199.801,921.614,269.598,922.761,273.284C921.245,273.94,788.861,325.509,787.427,480.463M660.572,860.945C695.757,904.24,719.515,964.452,712.961,1024.5C662.252,1022.452,600.893,990.175,564.479,946.88C531.874,908.623,503.284,847.305,511.067,788.486C567.633,784.021,625.346,817.731,660.572,860.945" class="icon-iTunes"/><glyph unicode="&#x0044;" d="M753.987,639.539C753.987,592.34,754.41,552.435,753.828,512.531C753.353,481.083,762.391,453.176,781.26,428.176C787.126,420.406,793.257,412.848,798.49,404.656C806.101,392.605,804.357,383.778,793.627,374.74C766.725,352.013,739.875,329.286,712.972,306.559C698.702,294.508,688.184,294.667,673.808,306.506C653.142,323.525,636.123,343.662,621.905,366.178C617.571,373.102,615.087,374.529,608.374,367.975C578.089,338.483,545.108,312.848,502.984,302.33C461.44,291.971,419.263,289.487,377.508,299.476C315.511,314.275,275.394,353.176,261.547,415.702C245.743,486.949,257.16,552.541,310.067,606.663C339.982,637.266,377.667,654.285,418.47,665.014C466.303,677.593,515.404,682.033,564.4,687.001C571.747,687.741,579.04,688.693,586.44,689.116C590.933,689.38,593.047,690.86,592.994,695.722C592.73,714.168,593.787,732.667,591.25,750.955C586.44,785.838,566.778,806.187,531.895,812.424C509.485,816.441,487.762,813.587,467.201,803.809C443.576,792.551,429.305,773.682,423.016,748.471C418.523,730.5,411.916,725.585,393.946,727.329C360.912,730.606,327.931,734.094,294.95,737.688C278.989,739.433,271.959,749.105,275.183,764.75C288.925,830.976,326.769,878.756,388.608,904.971C474.548,941.387,562.603,944.136,650.076,910.204C714.611,885.151,747.803,835.785,752.454,766.969C755.414,722.096,753.247,677.171,753.987,639.539C753.987,639.539,753.987,639.539,753.987,639.539M592.888,563.059C592.888,568.82,592.518,579.919,593.047,590.913C593.364,597.678,591.725,600.48,584.326,600.11C560.542,598.947,536.81,597.678,513.502,592.34C450.552,577.911,419.104,539.169,422.963,479.814C424.813,450.903,434.485,425.216,463.185,412.954C492.677,400.322,520.32,406.928,545.002,426.537C560.806,439.116,571.535,455.607,579.569,474C591.144,500.797,592.36,529.18,592.888,563.059C592.888,563.059,592.888,563.059,592.888,563.059M472.91,90.228C315.194,94.509,153.936,152.437,14.93,269.984C10.596,273.631,6.315,277.489,2.668,281.823C0.025,284.942,-1.296,289.064,1.77,292.922C4.412,296.252,8.165,296.464,11.865,295.142C15.617,293.768,19.317,292.13,22.806,290.174C146.167,221.992,278.143,181.823,418.259,167.553C584.484,150.64,744.949,173.843,899.758,236.474C905.995,239.011,912.179,241.496,919.156,241.02C924.864,240.65,929.673,238.853,932.263,233.303C934.8,227.859,933.373,222.891,930.149,218.187C927.824,214.804,924.599,212.479,921.27,210.153C846.587,159.149,763.818,127.595,676.08,108.092C616.884,94.932,557,88.695,472.91,90.228C472.91,90.228,472.91,90.228,472.91,90.228M915.826,275.534C892.359,275.375,869.05,272.468,845.741,270.142C840.879,269.667,834.695,267.394,832.581,273.578C830.467,279.709,835.963,283.092,840.403,286.051C863.236,301.115,888.87,308.726,915.614,312.426C944.631,316.39,973.754,316.548,1002.453,309.307C1021.269,304.603,1024.969,300.692,1023.806,281.4C1020.477,225.957,1001.713,176.961,960.91,137.849C956.47,133.621,951.185,127.014,944.631,131.295C937.232,136.052,943.415,142.923,945.53,148.314C957.369,178.547,969.842,208.568,974.864,240.967C978.193,262.69,973.331,269.825,951.925,273.789C939.98,276.062,927.876,275.639,915.826,275.534C915.826,275.534,915.826,275.534,915.826,275.534" class="icon-Amazon"/><glyph unicode="&#x0046;" d="M512.362,869.332C625.703,865.939,739.308,862.81,852.869,858.844C872.038,858.183,891.736,855.936,910.068,850.692C975.684,831.875,1002.08,791.333,1011.863,712.894C1028.697,578.092,1028.521,442.542,1012.48,307.652C1003.226,230.006,974.406,168.444,872.611,160.909C836.476,158.221,800.209,154.872,764.03,155.004C569.826,155.577,375.578,156.987,181.374,158.705C162.205,158.882,142.771,161.878,123.954,165.888C55.606,180.607,19.515,226.569,11.142,307.388C-2.871,442.542,-3.532,577.828,12.068,712.806C18.898,771.812,39.698,825.265,102.582,847.078C123.514,854.349,146.561,857.875,168.815,858.712C283.169,862.987,397.611,865.895,512.362,869.332C512.362,869.332,512.362,869.332,512.362,869.332M407.13,375.648C499.847,423.769,589.303,470.172,684.048,519.307C589.215,568.926,499.406,615.902,407.13,664.2C407.13,566.767,407.13,473.257,407.13,375.648C407.13,375.648,407.13,375.648,407.13,375.648" class="icon-YouTube"/><glyph unicode="&#x0049;" d="M61.5,1024.5C361.872,1024.5,662.284,1024.5,962.656,1024.5C957.536,966.498,952.457,908.538,947.295,850.536C942.134,792.288,936.891,734,931.73,675.753C926.651,618.611,921.531,561.511,916.451,504.369C910.758,440.469,905.023,376.528,899.37,312.628C893.472,245.86,887.655,179.134,882.003,112.366C881.552,106.959,879.34,104.624,874.097,103.15C761.903,71.773,649.75,40.192,537.597,8.569C529.528,6.317,521.704,3.203,513.757,0.5C512.611,0.5,511.464,0.5,510.358,0.5C507.286,1.77,504.295,3.367,501.1,4.268C384.36,37.325,267.619,70.381,150.837,103.273C146.045,104.624,144.079,106.632,143.669,111.916C141.007,146.16,137.975,180.404,134.903,214.606C130.029,268.635,124.909,322.622,120.075,376.61C115.774,424.699,111.883,472.788,107.582,520.877C102.748,574.905,97.587,628.852,92.754,682.88C88.453,730.969,84.52,779.058,80.301,827.147C75.345,884.002,70.266,940.815,65.064,997.67C64.244,1006.641,62.688,1015.57,61.5,1024.5C61.5,1024.5,61.5,1024.5,61.5,1024.5M265.858,438.871C265.858,435.349,265.694,432.563,265.899,429.819C266.964,415.646,268.151,401.514,269.257,387.342C272.289,347.691,275.32,308.04,278.187,268.348C278.597,262.491,280.809,259.459,286.789,257.821C360.151,237.791,433.432,217.474,506.794,197.362C509.948,196.501,513.676,196.174,516.748,197.034C590.601,217.228,664.373,237.627,738.186,257.903C742.446,259.091,744.781,260.934,745.232,265.89C747.689,294.441,750.68,322.95,753.178,351.5C756.291,387.137,758.872,422.774,762.108,458.41C766.327,505.025,771.038,551.598,775.461,598.212C776.567,609.927,776.444,609.968,764.238,609.927C635.7,609.763,507.122,609.559,378.584,609.395C375.471,609.395,372.153,608.821,369.245,609.681C367.197,610.296,364.37,612.754,364.166,614.597C361.012,648.554,358.185,682.511,355.359,716.468C355.195,718.598,355.646,720.81,355.85,723.842C360.028,723.842,363.633,723.842,367.279,723.842C503.23,723.76,639.182,723.678,775.134,723.596C786.89,723.596,786.562,723.637,787.545,734.86C789.306,754.358,791.682,773.774,793.484,793.272C794.795,807.608,795.614,821.986,796.679,836.691C606.945,836.691,418.563,836.691,229.975,836.691C229.729,834.93,229.402,833.824,229.484,832.759C232.146,799.621,234.686,766.483,237.553,733.345C241.199,691.195,245.131,649.046,248.899,606.896C251.931,572.939,254.839,538.982,258.034,505.025C259.14,493.555,259.468,493.596,271.469,493.596C393.781,493.473,516.051,493.391,638.363,493.228C641.926,493.228,645.531,492.941,650.405,492.695C649.013,478.236,647.661,464.759,646.391,451.242C643.442,419.333,640.698,387.383,637.339,355.515C637.052,352.647,633.202,348.633,630.252,347.814C592.322,337.164,554.269,327.005,516.215,316.847C513.635,316.15,510.562,315.823,508.023,316.478C469.068,326.759,430.155,337.123,391.323,347.814C389.152,348.428,386.49,351.787,386.285,354.081C383.704,379.231,381.247,404.382,379.485,429.614C378.953,437.397,376.331,439.65,368.712,439.568C337.704,439.199,306.696,439.404,275.688,439.404C272.657,439.363,269.626,439.035,265.858,438.871C265.858,438.871,265.858,438.871,265.858,438.871" class="icon-HTML"/><glyph unicode="&#x004a;" d="M961.221,514.933C934.843,508.852,909.326,506.169,886.358,506.169C757.159,506.169,657.687,596.402,657.687,753.297C657.687,830.2,687.421,870.189,729.463,870.189C769.462,870.189,796.129,834.303,796.129,761.496C796.129,720.1,785.042,674.732,776.855,647.892C776.855,647.892,816.669,578.439,925.537,599.754C948.655,651.075,961.221,717.542,961.221,775.847C961.221,932.739,881.233,1024,734.595,1024C583.867,1024,495.677,908.125,495.677,755.337C495.677,603.974,566.433,474.053,683.109,414.854C634.047,316.711,571.619,230.261,506.511,165.123C388.382,307.921,281.593,498.428,237.774,870.187C237.774,870.187,63.5,870.187,63.5,870.187C144.019,251.027,383.967,53.881,447.41,16.025C483.301,-5.509,514.197,-4.485,547.015,13.978C598.529,43.274,753.208,197.922,838.94,379.072C874.926,379.168,918.163,383.303,961.219,393.031C961.219,393.031,961.219,514.933,961.219,514.933C961.219,514.933,961.221,514.933,961.221,514.933C961.221,514.933,961.221,514.933,961.221,514.933" class="icon-Vine"/><glyph unicode="&#x004b;" d="M1022.211,792.819C988.726,758.834,949.374,731.837,913.06,701.222C881.737,674.807,849.583,649.433,816.513,622.52C885.939,566.821,953.95,512.245,1024,456.047C979.491,426.888,936.895,398.893,894.217,371.064C842.636,337.412,790.93,303.926,739.391,270.149C731.114,264.7,724.666,260.291,714.558,268.776C649.957,323.144,584.774,376.846,519.799,430.756C516.971,433.086,514.017,435.332,514.35,439.616C550.207,460.831,586.272,481.754,621.879,503.343C686.397,542.403,750.581,581.921,816.97,622.478C714.558,685.872,614.184,748.019,512.645,810.872C544.009,836.87,573.086,860.456,601.497,884.749C641.472,918.942,684.483,949.516,721.671,986.953C723.169,986.953,724.624,986.953,726.08,986.953C824.791,922.228,923.459,857.503,1022.211,792.819C1022.211,792.819,1022.211,792.819,1022.211,792.819M509.733,439.616C509.151,430.881,501.206,428.011,496.006,423.602C435.357,372.52,374.292,321.979,313.81,270.773C305.199,263.494,299.417,261.705,289.351,268.402C197.629,329.051,105.532,389.076,13.602,449.433C8.943,452.47,2.579,454.467,2.329,461.746C67.346,511.913,132.279,562.37,197.545,612.287C208.985,621.064,206.073,626.222,196.506,633.668C165.848,657.669,135.607,682.253,105.324,706.629C70.757,734.375,36.273,762.245,0,791.405C65.308,833.709,128.286,873.975,190.723,915.115C226.622,938.784,264.6,959.499,298.003,986.953C299.5,986.953,300.956,986.953,302.412,986.953C371.339,928.759,440.307,870.564,511.23,810.706C410.981,748.143,311.647,686.205,209.692,622.561C247.92,598.976,283.818,576.596,319.966,554.591C383.111,516.155,446.422,477.928,509.733,439.616C509.733,439.616,509.733,439.616,509.733,439.616M213.061,281.172C239.725,263.286,263.519,248.893,285.399,232.004C298.169,222.188,305.74,224.351,317.054,233.876C377.703,285.041,439.35,335.083,499.999,386.289C511.355,395.856,518.26,395.191,529.117,385.914C588.934,334.875,649.666,284.916,709.358,233.793C720.881,223.935,728.867,222.603,741.263,231.921C760.648,246.397,781.696,258.585,801.746,272.187C811.188,278.635,816.346,278.677,815.681,265.449C815.639,264.7,815.598,263.951,815.722,263.244C820.964,229.592,810.398,208.252,777.786,190.324C694.342,144.401,613.56,93.527,532.154,43.943C519.217,36.04,509.733,35.998,496.755,43.943C410.898,96.231,324.875,148.228,238.103,198.893C219.467,209.792,209.068,221.106,212.728,243.527C214.517,254.134,213.061,265.365,213.061,281.172C213.061,281.172,213.061,281.172,213.061,281.172" class="icon-Dropbox"/><glyph unicode="&#x004c;" d="M550.188,628.152C474.046,628.152,407.931,585.341,374.52,522.496C341.108,585.344,274.995,628.148,198.856,628.148C154.104,628.148,112.807,613.362,79.58,588.407C79.58,588.407,79.58,755.907,79.58,755.907C79.58,755.907,79.562,755.907,79.562,755.907C79.097,777.492,61.485,794.863,39.787,794.863C18.087,794.863,0.479,777.492,0.018,755.907C0.018,755.907,0,755.907,0,755.907C0,755.907,0,426.001,0,426.001C0,426.001,0.083,426.001,0.083,426.001C1.851,317.705,90.136,230.434,198.853,230.434C274.993,230.434,341.108,273.252,374.517,336.1C407.931,273.248,474.044,230.439,550.184,230.439C660.008,230.439,749.039,319.477,749.039,429.295C749.042,539.126,660.006,628.152,550.188,628.152C550.188,628.152,550.188,628.152,550.188,628.152M198.853,310.019C132.977,310.019,79.578,363.421,79.578,429.292C79.578,495.173,132.979,548.572,198.853,548.572C264.73,548.572,318.131,495.173,318.131,429.292C318.131,363.421,264.73,310.019,198.853,310.019C198.853,310.019,198.853,310.019,198.853,310.019M550.188,310.019C484.31,310.019,430.913,363.421,430.913,429.297C430.913,495.178,484.312,548.572,550.188,548.572C616.06,548.572,669.466,495.178,669.466,429.297C669.463,363.421,616.06,310.019,550.188,310.019C550.188,310.019,550.188,310.019,550.188,310.019M1016.538,293.021C1016.538,293.021,914.698,429.149,914.698,429.149C914.698,429.149,1016.538,565.28,1016.538,565.28C1016.538,565.28,1016.519,565.296,1016.519,565.296C1029.116,582.835,1025.466,607.299,1008.114,620.336C990.766,633.359,966.253,630.051,952.919,613.07C952.919,613.07,952.91,613.074,952.91,613.074C952.91,613.074,865.014,495.58,865.014,495.58C865.014,495.58,777.117,613.074,777.117,613.074C777.117,613.074,777.104,613.053,777.104,613.053C763.77,630.051,739.262,633.359,721.907,620.327C704.555,607.29,700.904,582.826,713.508,565.291C713.508,565.291,713.49,565.28,713.49,565.28C713.49,565.28,815.328,429.149,815.328,429.149C815.328,429.149,713.49,293.021,713.49,293.021C713.49,293.021,713.508,293.01,713.508,293.01C700.902,275.471,704.555,251.011,721.907,237.979C739.262,224.942,763.77,228.255,777.104,245.241C777.104,245.241,777.117,245.225,777.117,245.225C777.117,245.225,865.014,362.723,865.014,362.723C865.014,362.723,952.91,245.225,952.91,245.225C952.91,245.225,952.919,245.229,952.919,245.229C966.255,228.25,990.766,224.942,1008.114,237.97C1025.466,251.002,1029.116,275.467,1016.519,293.003C1016.519,293.003,1016.538,293.021,1016.538,293.021C1016.538,293.021,1016.538,293.021,1016.538,293.021" class="icon-box"/><glyph unicode="&#x004d;" d="M331.587,212.737C269.55,228.247,234.98,277.561,234.845,350.746C234.8,374.167,236.509,385.361,242.353,400.421C256.648,437.328,294.589,465.154,344.443,475.404C369.258,480.484,376.9,485.968,376.9,498.645C376.9,502.601,379.867,514.469,383.463,524.943C399.872,572.595,430.216,612.334,462.673,628.607C496.613,645.6,513.785,649.466,554.873,649.241C613.224,648.926,642.309,636.294,683.037,593.498C683.037,593.498,705.424,569.987,705.424,569.987C705.424,569.987,725.474,576.91,725.474,576.91C822.53,610.491,919.316,553.309,927.138,457.737C927.138,457.737,929.251,431.574,929.251,431.574C929.251,431.574,948.356,424.741,948.356,424.741C1002.93,405.186,1028.599,364.098,1023.969,303.724C1020.912,264.255,1002.481,232.742,973.216,217.053C973.216,217.053,959.46,209.681,959.46,209.681C959.46,209.681,653.907,209.096,653.907,209.096C419.112,208.692,344.488,209.501,331.587,212.737C331.587,212.737,331.587,212.737,331.587,212.737C331.587,212.737,331.587,212.737,331.587,212.737M103.849,254.949C67.616,263.535,29.226,295.543,11.244,332.135C1.039,352.904,0.5,355.961,0.5,392.643C0.5,427.573,1.354,433.192,9.491,450.499C26.618,487.047,59.435,513.48,100.658,523.819C109.334,526.022,117.515,529.484,118.819,531.596C120.123,533.664,121.561,545.038,122.011,556.771C124.888,629.911,172.854,694.33,239.88,715.054C276.068,726.247,321.562,723.46,360.942,707.726C373.439,702.736,372.045,701.658,398.433,736.272C414.032,756.726,445.59,782.215,471.439,795.162C499.31,809.143,528.305,815.616,562.965,815.526C659.841,815.301,743.366,754.703,774.249,662.188C784.094,632.653,783.599,624.337,772.001,624.112C766.921,624.022,752.356,621.235,739.679,617.908C739.679,617.908,716.573,611.884,716.573,611.884C716.573,611.884,695.489,632.968,695.489,632.968C636.06,692.397,539.049,705.254,456.604,664.615C423.652,648.387,397.174,625.056,377.17,594.667C362.919,572.999,344.758,532.585,344.758,522.561C344.758,515.458,339.004,511.862,314.369,503.815C238.172,478.82,193.712,421.144,193.712,347.285C193.712,320.402,200.635,287.541,210.256,268.705C213.897,261.602,215.92,254.859,214.751,253.691C211.739,250.813,116.931,251.802,103.849,254.949C103.849,254.949,103.849,254.949,103.849,254.949C103.849,254.949,103.849,254.949,103.849,254.949" class="icon-skydrive"/><glyph unicode="&#x004e;" d="M863.01,955.813C864.853,955.765,866.503,955.765,868.055,955.716C868.055,955.716,868.055,955.716,868.055,955.716C919.524,954.213,958.478,937.574,984.867,905.751C1010.82,874.462,1024.015,828.862,1024.451,769.001C1024.451,769.001,1024.5,768.952,1024.5,768.952C1024.5,768.952,1024.5,762.889,1024.5,762.889C1024.5,762.889,1024.451,762.84,1024.451,762.84C1024.451,759.736,1024.403,756.728,1024.306,753.769C1024.209,750.47,1024.112,747.365,1023.966,744.503C1023.966,744.503,1023.966,744.455,1023.966,744.455C1021.589,694.101,1003.107,634.968,968.519,566.956C934.32,499.77,884.257,423.56,818.186,338.377C818.186,338.377,818.186,338.377,818.186,338.377C749.787,249.312,686.482,182.368,628.269,137.593C568.796,91.848,514.368,69,464.936,69C432.725,69,403.134,83.699,376.356,113.096C350.84,141.086,327.798,182.659,307.326,237.864C307.326,237.864,306.987,238.785,306.987,238.785C298.11,271.433,289.232,304.129,280.306,336.776C263.037,400.227,245.767,463.678,226.315,535.473C226.315,535.473,226.315,535.473,226.315,535.473C211.713,588.398,196.578,627.885,181.055,653.983C167.084,677.414,153.598,689.105,140.5,689.105C138.802,689.105,132.205,685.661,120.708,678.724C107.853,670.962,90.389,659.368,68.463,643.942C68.463,643.942,60.022,637.975,60.022,637.975C60.022,637.975,53.667,646.173,53.667,646.173C53.667,646.173,6.709,706.762,6.709,706.762C6.709,706.762,0.5,714.815,0.5,714.815C0.5,714.815,8.116,721.51,8.116,721.51C34.991,745.182,59.294,766.769,81.415,786.61C103.778,806.645,127.936,828.474,153.598,851.759C153.598,851.759,153.792,851.953,153.792,851.953C187.07,880.817,216.224,902.889,241.304,918.17C267.257,934.032,289.329,942.764,307.423,944.462C307.423,944.462,307.423,944.462,307.423,944.462C349.821,948.537,384.118,935.924,410.41,906.673C435.684,878.488,453.002,834.878,462.365,775.841C462.365,775.841,462.365,775.792,462.365,775.792C471.727,716.028,479.828,666.451,486.717,627.206C493.46,588.834,498.65,562.299,502.386,547.552C502.386,547.552,502.483,547.261,502.483,547.261C513.543,497.102,524.991,459.7,536.876,435.057C547.209,413.664,556.862,402.992,565.788,402.992C573.113,402.992,583.495,410.075,597.029,424.337C612.164,440.248,629.967,464.454,650.584,496.859C650.584,496.859,650.584,496.859,650.584,496.859C671.152,529.361,686.918,557.933,697.881,582.528C708.554,606.444,714.569,626.478,715.927,642.535C715.927,642.535,715.976,642.729,715.976,642.729C718.644,668.294,715.297,687.019,705.934,698.952C696.96,710.401,681.533,716.125,659.704,716.125C648.401,716.125,637.001,714.864,625.504,712.438C613.765,709.916,601.928,706.229,589.898,701.281C589.898,701.281,568.747,692.598,568.747,692.598C568.747,692.598,575.442,714.476,575.442,714.476C599.794,793.887,635.061,853.7,681.242,894.012C727.909,934.711,785.345,955.377,853.599,955.91C853.599,955.91,853.696,955.959,853.696,955.959C853.696,955.959,858.013,955.959,858.013,955.959C858.013,955.959,858.062,955.91,858.062,955.91C859.808,955.862,861.458,955.862,863.01,955.813C863.01,955.813,863.01,955.813,863.01,955.813C863.01,955.813,863.01,955.813,863.01,955.813" class="icon-vimeo"/><glyph unicode="&#x004f;" d="M0,457.644C10.271,500.497,37.693,524.184,72.044,540.45C91.8,549.837,113.669,554.604,134.112,562.712C148.757,568.511,163.353,575.195,176.425,583.844C182.814,588.07,190.185,598.685,188.907,604.533C187.58,610.529,176.228,618.048,169.053,618.244C143.401,618.982,117.6,616.918,89.785,615.885C96.075,622.962,102.513,632.987,111.457,639.769C140.894,662.031,175.54,670.533,211.562,674.808C295.794,684.735,377.127,668.666,458.459,649.254C486.127,642.669,515.662,641.833,544.264,642.57C554.78,642.816,570.064,653.234,573.7,662.67C576.698,670.386,568.442,687.93,560.088,693.286C544.509,703.361,525.687,709.16,507.455,714.025C496.693,716.875,484.554,714.566,473.006,714.566C471.974,716.335,470.942,718.104,469.91,719.873C482.097,730.046,493.302,741.791,506.669,750.047C546.082,774.471,590.507,785.381,635.867,790.099C743.589,801.255,840.746,771.08,926.452,706.506C990.24,658.444,1025.476,591.854,1023.953,512.242C1022.085,414.496,975.694,337.439,892.74,285.887C788.85,221.313,678.081,216.89,565.887,261.316C507.062,284.61,451.432,316.061,392.509,339.208C348.673,356.408,301.937,366.237,254.612,379.85C273.434,403.094,303.51,409.336,335.601,422.801C322.528,436.905,312.405,450.469,299.726,460.887C267.586,487.425,228.714,496.762,188.121,498.728C123.153,501.824,60.987,489.931,0,457.644C0,457.644,0,457.644,0,457.644M489.469,503.003C488.633,500.546,487.847,498.04,487.011,495.582C489.616,494.55,492.368,493.715,494.825,492.388C537.875,469.045,580.384,444.621,624.023,422.506C673.658,397.345,725.603,380.783,782.757,384.322C837.552,387.713,884.877,416.855,899.276,459.167C927.73,542.809,851.017,628.073,760.347,613.379C708.255,604.927,663.584,578.979,617.684,554.997C583.185,536.961,546.18,523.742,510.109,508.753C503.622,506.001,496.398,504.87,489.469,503.003C489.469,503.003,489.469,503.003,489.469,503.003" class="icon-Mediafire"/><glyph unicode="&#x0050;" d="M1024,422.911C1024,422.911,725.559,124.47,725.559,124.47C657.304,56.215,565.955,11.055,464.222,1.79C451.332,0.627,438.263,0,425.014,0C190.263,0,0,190.263,0,425.014C0,438.218,0.627,451.287,1.79,464.222C11.1,565.955,56.215,657.304,124.47,725.559C124.47,725.559,422.911,1024,422.911,1024C453.928,992.983,473.084,950.195,473.084,902.887C473.084,883.776,469.951,865.38,464.177,848.238C458.851,832.484,451.332,817.714,441.933,804.376C441.933,804.376,250.64,613.039,250.64,613.039C244.419,607.4,238.422,601.447,232.782,595.181C232.782,595.181,220.071,580.009,220.071,580.009C186.906,537.131,167.168,483.288,167.168,424.88C167.168,284.745,280.762,171.152,420.897,171.152C479.305,171.152,533.148,190.889,576.025,224.055C576.025,224.055,779.984,424.656,779.984,424.656C798.827,443.499,822.056,458,848.015,466.46C864.709,471.92,882.567,474.829,901.097,474.829C949.3,474.874,992.849,454.957,1024,422.911C1024,422.911,1024,422.911,1024,422.911M537.534,262.635C506.92,244.061,470.98,233.364,432.578,233.364C320.596,233.364,229.828,324.132,229.828,436.114C229.828,474.561,240.525,510.456,259.099,541.07C294.637,599.702,359.042,638.864,432.578,638.864C544.561,638.864,635.328,548.097,635.328,436.114C635.328,362.578,596.166,298.172,537.534,262.635C537.534,262.635,537.534,262.635,537.534,262.635" class="icon-uploaded"/><glyph unicode="&#x0051;" d="M228.205,737.452C228.205,737.452,65,495.056,65,495.056C65,495.056,796.523,0,796.523,0C796.523,0,959.728,242.396,959.728,242.396C959.728,242.396,959.728,1024,959.728,1024C959.728,1024,228.205,737.452,228.205,737.452C228.205,737.452,228.205,737.452,228.205,737.452M262.093,714.535C262.093,714.535,395.258,624.416,395.258,624.416C395.258,624.416,132.025,521.291,132.025,521.291C132.025,521.291,262.093,714.535,262.093,714.535C262.093,714.535,262.093,714.535,262.093,714.535M768.342,53.089C768.342,53.089,125.168,488.375,125.168,488.375C125.168,488.375,423.573,605.26,423.573,605.26C423.573,605.26,768.342,371.933,768.342,371.933C768.342,371.933,768.342,53.089,768.342,53.089C768.342,53.089,768.342,53.089,768.342,53.089M768.342,405.955C768.342,405.955,455.426,617.736,455.426,617.736C455.426,617.736,768.342,740.283,768.342,740.283C768.342,740.283,768.342,405.955,768.342,405.955C768.342,405.955,768.342,405.955,768.342,405.955M773.208,772.446C773.208,772.446,427.112,636.892,427.112,636.892C427.112,636.892,288.417,730.771,288.417,730.771C288.417,730.771,908.763,973.742,908.763,973.742C908.763,973.742,773.208,772.446,773.208,772.446C773.208,772.446,773.208,772.446,773.208,772.446M931.591,957.196C931.591,957.196,931.591,295.529,931.591,295.529C931.591,295.529,796.523,386.931,796.523,386.931C796.523,386.931,796.523,756.652,796.523,756.652C796.523,756.652,931.591,957.196,931.591,957.196C931.591,957.196,931.591,957.196,931.591,957.196M796.523,54.682C796.523,54.682,796.523,352.865,796.523,352.865C796.523,352.865,933.891,259.871,933.891,259.871C933.891,259.871,796.523,54.682,796.523,54.682C796.523,54.682,796.523,54.682,796.523,54.682" class="icon-Vidspot"/><glyph unicode="&#x0052;" d="M533.113,400.27C574.602,405.182,617.476,405.048,657.403,415.856C806.702,456.318,880.838,610.218,822.646,753.488C813.401,776.175,802.147,798.014,789.061,826.24C930.188,760.991,984.361,626.563,928.133,497.049C874.094,372.58,731.36,315.504,603.185,367.668C579.336,377.359,556.47,389.507,533.113,400.493C533.113,400.493,533.113,400.27,533.113,400.27C533.113,400.27,533.113,400.27,533.113,400.27M533.113,400.493C586.303,307.734,671.024,275.355,770.617,290.629C898.434,310.279,962.879,397.858,985.165,522.862C1039.472,445.779,1036.345,361.549,978.778,278.526C919.737,193.403,814.25,153.343,715.014,178.353C609.884,204.881,545.975,282.858,533.113,400.225C533.113,400.27,533.113,400.493,533.113,400.493C533.113,400.493,533.113,400.493,533.113,400.493M531.997,479.899C500.422,744.109,388.146,823.113,139.432,756.123C220.759,887.156,374.167,920.473,493.499,832.983C609.929,747.593,627.212,588.915,531.997,479.899C531.997,479.899,531.997,479.899,531.997,479.899M554.371,435.373C723.411,641.435,693.89,781.445,463.309,911.898C594.7,958.077,726.715,889.032,767.982,752.595C811.391,609.057,724.482,472.173,554.371,435.373C554.371,435.373,554.371,435.373,554.371,435.373M480.95,430.415C449.911,535.814,374.48,590.612,269.93,599.767C144.792,610.754,64.358,541.575,11.927,432.246C-17.147,514.064,7.729,597.758,77.846,659.701C153.768,726.781,269.796,740.313,358.581,692.393C452.457,641.748,493.008,554.794,480.057,431.8C480.057,431.8,480.95,430.415,480.95,430.415C480.95,430.415,480.95,430.415,480.95,430.415M480.057,431.845C464.024,432.112,447.499,430.013,431.957,433.05C214.328,475.433,79.141,346.499,113.128,128.601C114.557,119.49,113.306,109.978,113.306,98.5C8.578,175.048,-13.172,313.986,60.205,421.841C136.306,533.625,290.965,564.486,403.33,489.456C430.037,471.637,454.69,450.691,480.593,430.817C480.95,430.415,480.057,431.845,480.057,431.845C480.057,431.845,480.057,431.845,480.057,431.845" class="icon-Powvideo"/><glyph unicode="&#x0053;" d="M749.658,261.565C617.235,270.39,505.617,339.954,465.387,469.172C446.456,529.911,402.381,570.091,337.451,583.008C312.603,585.227,302.546,597.454,304.173,623.583C336.958,710.452,429.891,766.359,513.752,746.836C559.602,736.187,597.465,712.621,611.467,663.073C601.606,659.967,597.416,668.595,591.5,673.081C553.834,701.676,512.322,710.255,466.965,696.549C442.807,689.252,426.341,672.243,414.607,650.502C407.36,637.092,408.592,634.577,423.925,634.873C457.253,635.465,487.721,625.457,517.449,611.8C551.418,596.27,577.547,572.704,592.88,534.496C603.677,561.266,611.812,585.375,621.228,608.941C623.94,615.744,625.715,622.992,632.025,627.724C680.094,759.161,728.113,890.549,777.069,1024.5C837.069,977.615,859.895,913.474,872.368,843.811C884.546,831.683,882.031,815.266,883.806,800.624C894.11,716.368,884.348,633.542,862.262,552.096C855.113,525.77,848.654,498.555,827.948,478.243C830.068,476.123,831.892,473.51,834.406,471.982C928.917,414.3,971.809,323.98,992.811,220.25C1006.27,153.694,1007.158,86.447,1001.587,18.905C1000.601,7.22,997.544,1.846,984.824,1.206C945.235,-0.767,906.14,0.318,870.002,18.806C826.765,40.893,806.798,78.608,802.213,125.395C798.022,168.041,804.826,209.651,816.461,250.571C812.172,256.24,814.637,262.452,815.278,268.319C820.158,311.852,800.684,342.813,764.892,364.703C732.6,384.473,697.152,392.213,659.338,389.353C651.943,388.811,644.794,387.086,638.139,383.782C623.693,376.634,619.453,365.147,625.961,350.208C630.201,340.496,637.153,332.904,645.534,326.297C674.276,303.668,706.076,287.251,741.326,277.243C750.397,274.679,761.145,274.432,765.878,263.734C761.194,257.473,755.377,260.036,749.658,261.565C749.658,261.565,749.658,261.565,749.658,261.565M827.948,478.145C860.881,545.392,874.045,617.075,880.256,691.274C884.595,742.941,879.418,793.179,872.418,843.762C899.484,866.046,918.81,895.43,942.672,920.672C947.996,926.292,952.976,932.307,958.892,939.061C978.711,909.579,989.459,878.076,991.726,845.093C1000.699,714.199,960.026,600.609,868.621,505.901C857.134,494.069,843.971,483.716,827.948,478.145C827.948,478.145,827.948,478.145,827.948,478.145M632.025,627.675C619.799,593.46,607.572,559.245,593.965,521.185C582.428,547.216,571.927,568.415,552.059,584.241C516.365,612.737,475.839,626.59,431.024,629.943C424.96,630.387,418.798,630.387,412.684,630.042C401,629.351,401.099,634.035,405.092,643.106C426.637,692.013,475.05,715.826,528.444,706.212C561.179,700.296,587.112,683.78,611.467,663.073C618.32,651.241,625.172,639.458,632.025,627.675C632.025,627.675,632.025,627.675,632.025,627.675M764.941,265.361C720.176,277.045,677.629,293.265,641.343,323.29C635.575,328.072,630.595,332.953,626.454,339.165C609.297,364.851,615.361,383.98,645.583,391.375C681.277,400.101,716.084,393.347,749.165,378.31C769.921,368.893,788.261,356.716,802.311,337.587C822.328,310.422,824.448,281.581,816.412,250.472C806.453,252.099,796.297,253.134,787.077,257.769C780.52,262.6,770.611,257.818,764.941,265.361C764.941,265.361,764.941,265.361,764.941,265.361M304.173,623.583C308.265,613.575,312.899,603.715,316.301,593.46C319.998,582.219,331.584,588.727,337.5,583.008C258.766,586.262,190.583,553.181,122.695,519.952C93.805,505.803,64.47,492.245,37.355,474.694C32.967,473.757,31.242,475.482,32.129,479.821C64.914,508.465,102.63,529.615,140.345,550.519C192.801,579.656,245.8,607.659,304.173,623.583C304.173,623.583,304.173,623.583,304.173,623.583M764.941,265.361C772.336,262.896,780.865,263.734,787.077,257.719C774.653,259.396,761.737,256.438,749.707,261.565C754.834,262.649,760.849,260.036,764.941,265.361C764.941,265.361,764.941,265.361,764.941,265.361M32.08,479.87C33.805,478.145,35.531,476.419,37.306,474.743C32.08,471.095,26.854,467.496,19.508,462.368C19.212,474.25,27.347,475.729,32.08,479.87C32.08,479.87,32.08,479.87,32.08,479.87M508.131,660.214C506.307,645.571,499.652,637.042,485.552,637.585C471.846,638.127,463.81,646.656,464.056,659.967C464.352,673.328,472.93,681.413,486.538,681.413C500.736,681.413,505.469,670.962,508.131,660.214C508.131,660.214,508.131,660.214,508.131,660.214" class="icon-SugarSync"/><glyph unicode="&#x0054;" d="M764.79,656.419C759.325,656.419,753.902,656.252,748.523,655.918C734.187,785.504,624.316,886.284,490.909,886.284C347.75,886.284,231.699,770.233,231.699,627.075C231.699,623.15,231.787,619.245,231.962,615.361C103.244,611.791,0,506.316,0,376.73C0,244.881,106.881,138,238.73,138C238.73,138,764.79,138,764.79,138C768.459,138,772.127,138.078,775.795,138.232C913.848,143.997,1024,257.738,1024,397.21C1024,540.368,907.949,656.419,764.79,656.419C764.79,656.419,764.79,656.419,764.79,656.419M797.192,386.633C797.192,386.633,699.328,335.586,699.328,335.586C699.328,335.586,699.328,386.45,699.328,386.45C699.328,396.996,687.911,403.588,678.778,398.315C674.538,395.867,671.927,391.344,671.927,386.45C671.927,386.45,671.927,321.293,671.927,321.293C671.927,321.293,529.387,246.947,529.387,246.947C529.387,246.947,529.387,472.949,529.387,472.949C529.387,483.495,517.97,490.087,508.836,484.814C504.597,482.366,501.986,477.843,501.986,472.949C501.986,472.949,501.986,232.654,501.986,232.654C501.986,232.654,426.461,193.259,426.461,193.259C392.794,175.702,352.488,200.125,352.488,238.095C352.488,238.095,352.488,624.837,352.488,624.837C352.488,662.808,392.776,687.231,426.461,669.673C426.461,669.673,797.192,476.299,797.192,476.299C833.408,457.396,833.408,405.536,797.161,386.633C797.161,386.633,797.192,386.633,797.192,386.633" class="icon-StreamCloud"/><glyph unicode="&#x0055;" d="M482.253,684.923C482.253,684.923,215.051,783.671,215.051,783.671C215.051,783.671,472.369,782.965,472.369,782.965C472.369,782.965,673.912,882.418,673.912,882.418C673.912,882.418,482.253,684.923,482.253,684.923M364.585,579.21C364.585,579.21,0,217.543,0,217.543C0,217.543,197.542,555.958,197.542,555.958C197.542,555.958,103.925,679.416,103.925,679.416C103.925,679.416,364.585,579.21,364.585,579.21M803.206,664.92C803.206,664.92,1024,505.126,1024,505.126C1024,505.126,640.541,638.75,640.541,638.75C640.541,638.75,807.584,817.418,807.584,817.418C807.584,817.418,803.206,664.92,803.206,664.92M560.668,364.253C560.668,364.253,165.583,142,165.583,142C165.583,142,519.154,517.175,519.154,517.175C519.154,517.175,990.582,329.611,990.582,329.611C990.582,329.611,560.668,364.253,560.668,364.253" class="icon-Uploading"/><glyph unicode="&#x0056;" d="M876.544,1024C876.544,1024,147.456,1024,147.456,1024C66.028,1024,0,957.972,0,876.544C0,876.544,0,147.456,0,147.456C0,65.987,66.028,0,147.456,0C147.456,0,876.544,0,876.544,0C958.013,0,1024,66.028,1024,147.456C1024,147.456,1024,876.544,1024,876.544C1024,957.972,957.972,1024,876.544,1024C876.544,1024,876.544,1024,876.544,1024M773.652,175.718C765.051,160.85,749.445,152.494,733.43,152.494C725.565,152.494,717.578,154.501,710.287,158.72C710.287,158.72,512,273.203,512,273.203C512,273.203,313.754,158.72,313.754,158.72C291.553,145.9,263.168,153.518,250.388,175.718C246.17,183.009,244.163,190.996,244.163,198.861C244.163,214.876,252.477,230.482,267.387,239.084C267.387,239.084,419.267,326.779,419.267,326.779C419.267,326.779,512.041,380.355,512.041,380.355C512.041,380.355,604.815,326.779,604.815,326.779C604.815,326.779,756.695,239.084,756.695,239.084C778.854,226.304,786.432,197.919,773.652,175.718C773.652,175.718,773.652,175.718,773.652,175.718M773.652,421.274C765.051,406.405,749.445,398.049,733.43,398.049C725.565,398.049,717.578,400.056,710.287,404.275C710.287,404.275,512.041,518.758,512.041,518.758C512.041,518.758,313.795,404.275,313.795,404.275C291.594,391.455,263.209,399.073,250.429,421.274C246.211,428.564,244.204,436.552,244.204,444.416C244.204,460.431,252.518,476.037,267.428,484.639C267.428,484.639,419.308,572.334,419.308,572.334C419.308,572.334,512,625.91,512,625.91C512,625.91,604.774,572.334,604.774,572.334C604.774,572.334,756.654,484.639,756.654,484.639C778.854,471.859,786.432,443.474,773.652,421.274C773.652,421.274,773.652,421.274,773.652,421.274M773.652,666.87C765.051,652.001,749.445,643.645,733.43,643.645C725.565,643.645,717.578,645.652,710.287,649.871C710.287,649.871,512.041,764.355,512.041,764.355C512.041,764.355,313.754,649.871,313.754,649.871C291.553,637.051,263.168,644.669,250.388,666.87C246.17,674.161,244.163,682.148,244.163,690.012C244.163,706.068,252.477,721.633,267.387,730.235C267.387,730.235,419.267,817.93,419.267,817.93C419.267,817.93,512,871.465,512,871.465C512,871.465,604.774,817.889,604.774,817.889C604.774,817.889,756.654,730.194,756.654,730.194C778.854,717.414,786.432,689.029,773.652,666.87C773.652,666.87,773.652,666.87,773.652,666.87" class="icon-Turbobit"/><glyph unicode="&#x0057;" d="M516.371,0.536C432.353,0.237,354.01,5.229,277.289,25.455C211.278,42.865,151.668,71.923,104.773,123.17C62.273,169.553,38.079,225.238,23.102,285.445C-0.751,381.411,-2.074,479.211,1.468,577.183C3.644,637.049,10.813,696.446,27.198,754.35C45.547,819.081,75.16,877.198,126.322,922.599C171.979,963.093,226.255,986.476,284.714,1001.027C380.679,1024.922,478.48,1026.33,576.451,1022.831C636.317,1020.698,695.672,1013.572,753.618,997.229C818.05,979.052,875.954,949.737,921.312,899.087C962.532,853.089,986.171,798.215,1000.85,739.031C1024.66,643.065,1026.068,545.265,1022.569,447.294C1020.436,387.385,1013.267,328.03,996.881,270.084C978.661,205.695,949.219,147.834,898.484,102.56C852.698,61.682,798.166,38.086,739.366,23.45C664.48,4.888,588.142,0.024,516.371,0.536C516.371,0.536,516.371,0.536,516.371,0.536M756.349,463.423C756.349,586.357,756.349,707.455,756.349,829.407C751.1,829.705,746.705,830.132,742.353,830.132C702.286,830.26,662.218,829.663,622.193,830.687C605.552,831.114,592.964,825.865,580.59,815.07C502.716,747.053,424.374,679.634,346.244,611.959C281.556,555.933,216.868,499.907,152.265,443.795C149.833,441.662,146.462,438.717,146.377,436.072C145.907,413.243,146.121,390.414,146.121,366.135C309.249,366.135,471.012,366.135,633.8,366.135C633.8,360.631,633.8,356.577,633.8,352.523C633.757,311.773,633.97,271.023,633.416,230.273C633.288,221.013,636.147,218.709,645.065,218.88C678.262,219.477,711.502,219.221,744.7,219.306C748.37,219.306,752.039,219.691,756.733,219.947C756.733,269.017,756.733,317.107,756.733,366.69C797.654,366.69,837.465,366.69,877.405,366.69C877.405,399.589,877.405,430.909,877.405,463.423C837.166,463.423,797.611,463.423,756.349,463.423C756.349,463.423,756.349,463.423,756.349,463.423M633.074,730.838C633.074,640.719,633.074,552.946,633.074,464.405C536.682,464.405,441.015,464.405,342.575,464.405C439.82,553.586,535.615,641.444,633.074,730.838C633.074,730.838,633.074,730.838,633.074,730.838" class="icon-4sharéd"/><glyph unicode="&#x0058;" d="M481.758,831.258C481.758,831.258,481.758,542.566,481.758,542.566C481.758,542.566,193.065,542.566,193.065,542.566C193.065,542.566,193.065,543.316,193.065,543.316C193.065,543.316,295.403,645.654,295.403,645.654C270.459,708.302,235.404,763.092,193.065,806.446C168.253,831.832,140.925,853.333,111.61,870.154C76.82,890.109,39.293,903.487,0,909.138C22.914,914.568,46.533,917.394,70.639,917.394C97.393,917.394,123.486,913.906,148.739,907.283C199.688,893.862,246.971,867.637,288.472,831.302C321.672,802.252,351.164,766.712,375.843,726.139C375.843,726.139,481.007,831.302,481.007,831.302C481.007,831.302,481.758,831.302,481.758,831.302C481.758,831.302,481.758,831.258,481.758,831.258M830.935,542.566C830.935,542.566,542.242,542.566,542.242,542.566C542.242,542.566,542.242,831.258,542.242,831.258C542.242,831.258,542.993,831.258,542.993,831.258C542.993,831.258,645.331,728.92,645.331,728.92C707.979,753.864,762.768,788.919,806.123,831.258C831.509,856.07,853.01,883.399,869.83,912.714C889.786,947.504,903.163,985.03,908.814,1024.323C914.245,1001.41,917.07,977.79,917.07,953.684C917.07,926.93,913.582,900.838,906.96,875.584C893.539,824.636,867.314,777.352,830.979,735.852C801.929,702.651,766.389,673.159,725.815,648.48C725.815,648.48,830.979,543.316,830.979,543.316C830.979,543.316,830.979,542.566,830.979,542.566C830.979,542.566,830.935,542.566,830.935,542.566M542.242,193.565C542.242,193.565,542.242,482.258,542.242,482.258C542.242,482.258,830.935,482.258,830.935,482.258C830.935,482.258,830.935,481.507,830.935,481.507C830.935,481.507,728.597,379.169,728.597,379.169C753.541,316.521,788.596,261.732,830.935,218.377C855.747,192.991,883.075,171.49,912.39,154.67C947.18,134.714,984.707,121.337,1024,115.686C1001.086,110.255,977.467,107.43,953.361,107.43C926.607,107.43,900.514,110.918,875.261,117.54C824.312,130.961,777.029,157.186,735.528,193.521C702.328,222.571,672.836,258.111,648.157,298.685C648.157,298.685,542.993,193.521,542.993,193.521C542.993,193.521,542.242,193.521,542.242,193.521C542.242,193.521,542.242,193.565,542.242,193.565M193.065,482.258C193.065,482.258,481.758,482.258,481.758,482.258C481.758,482.258,481.758,193.565,481.758,193.565C481.758,193.565,481.007,193.565,481.007,193.565C481.007,193.565,378.669,295.903,378.669,295.903C316.021,270.959,261.232,235.904,217.877,193.565C192.491,168.753,170.99,141.425,154.17,112.11C134.214,77.32,120.837,39.793,115.186,0.5C109.755,23.414,106.93,47.033,106.93,71.139C106.93,97.893,110.418,123.986,117.04,149.239C130.461,200.188,156.686,247.471,193.021,288.972C222.071,322.172,257.611,351.664,298.185,376.343C298.185,376.343,193.065,481.507,193.065,481.507C193.065,481.507,193.065,482.258,193.065,482.258C193.065,482.258,193.065,482.258,193.065,482.258" class="icon-AllMyVideo"/><glyph unicode="&#x0059;" d="M512,1024C229.228,1024,0,794.772,0,512C0,229.228,229.228,0,512,0C794.772,0,1024,229.228,1024,512C1024,794.772,794.772,1024,512,1024C512,1024,512,1024,512,1024M596.552,481.239C596.552,481.239,475.893,411.574,475.893,411.574C452.205,397.921,422.595,414.987,422.595,442.335C422.595,442.335,422.595,581.624,422.595,581.624C422.595,608.972,452.205,626.038,475.893,612.385C475.893,612.385,596.552,542.72,596.552,542.72C620.24,529.108,620.24,494.892,596.552,481.239C596.552,481.239,596.552,481.239,596.552,481.239" class="icon-Veoh"/><glyph unicode="&#x005a;" d="M252.794,753.356C335.437,761.147,390.201,701.023,446.137,642.926C451.812,637.026,452.757,631.081,446.768,624.821C433.121,610.544,419.43,596.313,405.784,582.036C397.317,573.164,391.913,580.325,386.373,585.909C373.132,599.195,359.261,611.941,346.876,625.992C287.563,693.277,185.915,681.612,129.934,625.181C67.738,562.49,67.153,463.86,128.628,401.214C193.166,335.46,283.329,332.893,347.011,398.151C439.427,492.773,528.599,590.548,621.555,684.63C700.91,764.975,805.71,779.027,903.26,721.2C988.244,670.804,1031.93,592.8,1023.463,493.179C1014.861,391.621,959.736,319.562,863.943,284.298C773.464,250.971,691.092,268.76,621.555,337.622C612.413,346.629,604.171,356.852,593.993,364.464C571.249,381.578,571.609,396.259,592.146,416.346C625.518,449.043,625.699,451.384,657.765,416.481C707.305,362.527,763.466,334.469,837.146,361.401C913.664,389.369,956.629,472.867,936.092,553.663C916.681,630.135,835.165,683.414,756.62,670.578C711.674,663.237,681.949,631.982,652.676,601.222C572.42,516.823,493.426,431.208,412.81,347.169C364.575,296.908,307.784,266.148,234.464,269.346C98.633,275.291,-2.924,385.586,0.588,526.866C3.741,650.627,115.567,754.932,252.794,753.356C252.794,753.356,252.794,753.356,252.794,753.356" class="icon-Openload"/><glyph unicode="&#x0061;" d="M1024.5,342.694C956.953,337.803,882.133,320.108,807.057,289.014C685.915,238.822,589.954,164.384,537.975,88.5C538.018,88.628,538.06,88.755,538.103,88.883C552.65,138.267,562.688,195.01,566.942,256.091C430.997,224.062,301.731,224.7,201.091,253.497C104.45,281.145,34.18,334.74,9.722,410.199C-45.149,579.279,150.473,794.212,446.565,890.301C544.866,922.203,641.89,936.963,729.641,936.325C684.256,927.222,636.956,912.972,589.613,893.321C492.717,853.209,411.984,797.573,356.9,738.065C290.034,665.839,261.067,587.913,287.056,525.088C319.468,446.822,428.913,412.325,563.411,426.703C556.861,484.934,544.908,538.274,528.915,583.872C558.903,535.722,609.775,488.55,675.408,448.694C723.006,419.769,778.388,394.673,839.171,375.787C842.914,374.639,846.658,373.49,850.401,372.384C910.589,354.689,969.714,344.949,1024.5,342.694C1024.5,342.694,1024.5,342.694,1024.5,342.694" class="icon-Netload"/><glyph unicode="&#x0062;" d="M1017.59,743.319C1011.339,750.2,1001.987,754.124,991.909,754.124C991.909,754.124,656.214,754.124,656.214,754.124C640.078,754.124,626.559,744.143,624.04,730.43C620.696,712.308,603.349,699.177,582.805,699.177C582.805,699.177,582.611,699.177,582.611,699.177C582.611,699.177,169.243,700.194,169.243,700.194C169.243,700.194,169.097,700.194,169.097,700.194C153.204,700.194,139.394,690.019,136.875,676.451C136.875,676.451,54.308,224.513,54.308,224.513C52.951,217.148,54.986,209.783,60.025,203.726C66.228,196.264,75.87,192,86.482,192C86.482,192,942.969,192,942.969,192C959.783,192,974.029,203.338,975.434,217.826C975.434,217.826,976.936,233.526,976.936,233.526C976.936,233.526,1024.373,723.646,1024.373,723.646C1025.1,730.769,1022.678,737.747,1017.59,743.319C1017.59,743.319,1017.59,743.319,1017.59,743.319M694.493,446.097C688.242,403.941,674.53,362.803,669.587,320.551C664.742,278.831,635.911,282.223,609.891,284.694C568.995,288.522,589.152,317.401,592.496,337.752C595.936,358.83,602.187,379.423,606.014,400.404C610.133,422.839,620.745,449.974,592.592,462.329C564.586,474.589,535.27,470.567,511.77,447.115C478.821,414.262,476.01,369.781,470.874,328.255C465.932,287.989,444.272,280.479,411.129,283.725C363.789,288.377,388.888,321.762,392.329,340.563C405.993,414.989,426.392,488.253,438.894,562.873C445.871,604.399,467.337,615.786,502.854,608.518C547.626,599.36,512.061,568.349,516.034,548.046C518.36,536.272,511.528,522.704,506.052,497.072C551.406,522.801,588.328,532.25,628.255,528.083C678.891,522.85,702.003,496.684,694.493,446.097C694.493,446.097,694.493,446.097,694.493,446.097M874.793,764.833C874.793,764.833,657.667,764.833,657.667,764.833C637.122,764.833,619.776,751.702,616.432,733.58C613.864,719.818,600.345,709.885,584.258,709.885C584.258,709.885,584.113,709.885,584.113,709.885C584.113,709.885,170.745,710.903,170.745,710.903C170.745,710.903,170.551,710.903,170.551,710.903C160.763,710.903,151.266,707.802,143.755,702.229C136.051,696.463,130.915,688.468,129.316,679.601C129.316,679.601,48.348,236.821,48.348,236.821C48.348,236.821,0.62,797.346,0.62,797.346C-0.155,806.553,2.849,815.323,9.099,822.155C15.35,828.939,23.878,832.67,33.085,832.67C33.085,832.67,510.558,832.67,510.558,832.67C526.597,832.67,540.116,821.186,542.684,805.341C544.283,795.553,549.322,786.589,556.93,780.193C564.489,773.797,574.034,770.308,583.919,770.308C583.919,770.308,584.113,770.308,584.113,770.308C584.113,770.308,854.975,771.471,854.975,771.471C862.341,771.471,869.27,769.049,874.793,764.833C874.793,764.833,874.793,764.833,874.793,764.833" class="icon-Hotfile"/><glyph unicode="&#x0063;" d="M138.076,516.485C138.076,516.485,131.645,516.485,131.645,516.485C131.645,516.485,131.645,516.895,131.645,516.895C133.816,516.854,135.946,516.731,138.076,516.485C138.076,516.485,138.076,516.485,138.076,516.485M138.076,401.183C135.823,400.896,133.489,400.773,131.154,400.773C131.154,400.773,131.154,401.183,131.154,401.183C131.154,401.183,138.076,401.183,138.076,401.183C138.076,401.183,138.076,401.183,138.076,401.183M640.328,640.184C640.328,640.184,640.328,576.246,640.328,576.246C640.328,576.246,896.655,576.246,896.655,576.246C896.655,576.246,896.655,512.307,896.655,512.307C896.655,512.307,640.328,512.307,640.328,512.307C640.328,512.307,640.328,320.451,640.328,320.451C640.328,320.451,131.564,320,127.918,320C57.262,320,0,377.262,0,447.877C0,518.533,57.262,575.795,127.877,575.795C128.041,575.795,128.246,575.795,128.41,575.795C131.85,575.795,512.123,575.345,512.123,575.345C512.123,575.345,512.123,511.406,512.123,511.406C512.123,511.406,130.826,511.816,128.41,511.857C128.246,511.857,128.041,511.857,127.877,511.857C92.57,511.857,63.939,483.226,63.939,447.918C63.939,412.611,92.57,383.98,127.877,383.98C130.458,383.98,576.348,384.43,576.348,384.43C576.348,384.43,576.348,704.123,576.348,704.123C576.348,704.123,1024,704.123,1024,704.123C1024,704.123,1024,640.184,1024,640.184C1024,640.184,640.328,640.184,640.328,640.184C640.328,640.184,640.328,640.184,640.328,640.184" class="icon-Depositfiles"/><glyph unicode="&#x0064;" d="M288.511,65.767C294.455,76.456,299.775,86.139,305.24,95.725C339.848,156.361,374.456,216.949,409.063,277.584C428.381,311.425,447.889,345.218,466.919,379.251C469.939,384.667,473.102,387.016,479.525,387.016C657.837,386.824,836.149,386.872,1014.461,386.872C1017.098,386.872,1019.686,386.872,1024,386.872C1017.05,373.547,1011.01,361.803,1004.779,350.107C975.156,294.217,945.533,238.327,915.814,182.437C896.21,145.576,876.461,108.859,856.952,71.95C854.412,67.109,851.536,65,845.736,65C662.774,65.192,479.813,65.144,296.851,65.144C294.599,65.192,292.25,65.527,288.511,65.767C288.511,65.767,288.511,65.767,288.511,65.767M169.684,71.183C160.146,87.625,150.99,103.395,141.835,119.165C112.931,169.207,84.075,219.249,55.124,269.292C37.005,300.688,18.742,331.989,0.767,363.481C-0.287,365.35,-0.239,368.849,0.815,370.719C25.07,413.044,49.563,455.273,73.962,497.502C103.105,548.024,132.201,598.594,161.344,649.115C185.742,691.393,210.188,733.622,234.586,775.851C252.034,806.049,269.482,836.295,286.977,866.493C288.415,868.986,290.045,871.334,292.25,874.786C302.987,856.14,313.053,838.74,323.119,821.34C358.446,760.225,393.821,699.11,429.147,637.947C439.357,620.26,449.327,602.38,459.681,584.741C462.078,580.667,462.03,577.551,459.681,573.525C439.693,539.109,419.896,504.597,400.004,470.085C361.897,403.937,323.79,337.789,285.635,271.688C254.67,218.099,223.609,164.605,192.597,111.016C185.071,98.17,177.689,85.132,169.684,71.183C169.684,71.183,169.684,71.183,169.684,71.183M341.669,959.484C345.312,959.484,348.236,959.484,351.112,959.484C458.387,959.484,565.662,959.388,672.984,959.675C679.887,959.675,683.721,957.614,687.125,951.671C722.212,890.364,757.491,829.249,792.818,768.086C821.29,718.763,849.906,669.487,878.379,620.116C909.583,566.047,940.74,511.978,971.896,457.909C972.807,456.328,973.382,454.506,974.82,451.103C970.65,451.103,967.582,451.103,964.515,451.103C857.24,451.103,749.965,451.151,642.642,450.959C636.267,450.959,632.72,453.02,629.653,458.389C592.408,523.434,555.02,588.432,517.537,653.334C477.033,723.412,436.337,793.395,395.786,863.473C377.907,894.39,360.123,925.355,342.34,956.32C342.148,956.752,342.148,957.327,341.669,959.484C341.669,959.484,341.669,959.484,341.669,959.484" class="icon-Drive"/><glyph unicode="&#x0065;" d="M0,910.45C0,910.45,0,114,0,114C0,114,1024,114,1024,114C1024,114,1024,910.45,1024,910.45C1024,910.45,0,910.45,0,910.45C0,910.45,0,910.45,0,910.45M227.55,227.799C227.55,227.799,113.799,227.799,113.799,227.799C113.799,227.799,113.799,341.599,113.799,341.599C113.799,341.599,227.599,341.599,227.599,341.599C227.599,341.599,227.599,227.799,227.599,227.799C227.599,227.799,227.55,227.799,227.55,227.799M227.55,455.35C227.55,455.35,113.799,455.35,113.799,455.35C113.799,455.35,113.799,569.149,113.799,569.149C113.799,569.149,227.599,569.149,227.599,569.149C227.599,569.149,227.599,455.35,227.599,455.35C227.599,455.35,227.55,455.35,227.55,455.35M227.55,682.9C227.55,682.9,113.799,682.9,113.799,682.9C113.799,682.9,113.799,796.699,113.799,796.699C113.799,796.699,227.599,796.699,227.599,796.699C227.599,796.699,227.599,682.9,227.599,682.9C227.599,682.9,227.55,682.9,227.55,682.9M910.201,227.799C910.201,227.799,796.401,227.799,796.401,227.799C796.401,227.799,796.401,341.599,796.401,341.599C796.401,341.599,910.201,341.599,910.201,341.599C910.201,341.599,910.201,227.799,910.201,227.799C910.201,227.799,910.201,227.799,910.201,227.799M910.201,455.35C910.201,455.35,796.401,455.35,796.401,455.35C796.401,455.35,796.401,569.149,796.401,569.149C796.401,569.149,910.201,569.149,910.201,569.149C910.201,569.149,910.201,455.35,910.201,455.35C910.201,455.35,910.201,455.35,910.201,455.35M910.201,682.9C910.201,682.9,796.401,682.9,796.401,682.9C796.401,682.9,796.401,796.699,796.401,796.699C796.401,796.699,910.201,796.699,910.201,796.699C910.201,796.699,910.201,682.9,910.201,682.9C910.201,682.9,910.201,682.9,910.201,682.9" class="icon-GooglePelicula"/></font>
</defs>
</svg>
